{"title":"Paul Henreid - Dead Ringer (1964)","uid":8610113,"size":1256717397,"categoryP":"video","categoryS":"movies","magnet":"?xt=urn:btih:fb99391b67741d856eed4b4517271cd558c12448&amp;dn=Paul+Henreid+-+Dead+Ringer+%281964%29&amp;tr=udp%3A%2F%2Ftracker.openbittorrent.com%3A80&amp;tr=udp%3A%2F%2Fopen.demonii.com%3A1337&amp;tr=udp%3A%2F%2Ftracker.coppersurfer.tk%3A6969&amp;tr=udp%3A%2F%2Fexodus.desync.com%3A6969","seeders":1,"leechers":0,"uploader":"moonflux","files":1,"time":1372115376,"description":"Complete name : Dead.Ringer.1964.DVDRip.x264-HANDJOB.mkv\nFormat : Matroska\nFormat version : Version 2\nFile size : 1.17 GiB\nDuration : 1h 55mn\nOverall bit rate : 1 446 Kbps\nWriting application : HandBrake 5003svn\nWriting library : libmkv 0.6.5\n\nVideo\nID : 1\nFormat : AVC\nFormat/Info : Advanced Video Codec\nFormat profile : &lt;a class=&quot;__cf_email__&quot; href=&quot;/cdn-cgi/l/email-protection&quot; data-cfemail=&quot;7a32131d123a3649544b&quot;&gt;[email&amp;#160;protected]&lt;/a&gt;&lt;script cf-hash='f9e31' type=&quot;text/javascript&quot;&gt;\n/* &lt;![CDATA[ */!function(){try{var t=&quot;currentScript&quot;in document?document.currentScript:function(){for(var t=document.getElementsByTagName(&quot;script&quot;),e=t.length;e--;)if(t[e].getAttribute(&quot;cf-hash&quot;))return t[e]}();if(t&amp;&amp;t.previousSibling){var e,r,n,i,c=t.previousSibling,a=c.getAttribute(&quot;data-cfemail&quot;);if(a){for(e=&quot;&quot;,r=parseInt(a.substr(0,2),16),n=2;a.length-n;n+=2)i=parseInt(a.substr(n,2),16)^r,e+=String.fromCharCode(i);e=document.createTextNode(e),c.parentNode.replaceChild(e,c)}}}catch(u){}}();/* ]]&gt; */&lt;/script&gt;\nFormat settings, CABAC : Yes\nFormat settings, ReFrames : 9 frames\nFormat settings, GOP : M=7, N=30\nCodec ID : V_MPEG4/ISO/AVC\nDuration : 1h 55mn\nBit rate : 1 225 Kbps\nWidth : 720 pixels\nHeight : 480 pixels\nDisplay aspect ratio : 16:9\nOriginal display aspect ratio : 16:9\nFrame rate mode : Variable\nFrame rate : 23.976 fps\nStandard : NTSC\nColor space : YUV\nChroma subsampling : 4:2:0\nBit depth : 8 bits\nScan type : Progressive\nBits/(Pixel*Frame) : 0.148\nStream size : 1 016 MiB (85%)\nWriting library : x264 core 125\nEncoding settings : cabac=1 / ref=9 / deblock=1:-2:-2 / analyse=0x3:0x133 / me=umh / subme=9 / psy=1 / psy_rd=1.00:0.00 / mixed_ref=1 / me_range=24 / chroma_me=1 / trellis=2 / 8x8dct=1 / cqm=0 / deadzone=21,11 / fast_pskip=0 / chroma_qp_offset=-2 / threads=12 / lookahead_threads=2 / sliced_threads=0 / nr=0 / decimate=1 / interlaced=0 / bluray_compat=0 / constrained_intra=0 / bframes=6 / b_pyramid=2 / b_adapt=2 / b_bias=0 / direct=3 / weightb=1 / open_gop=0 / weightp=2 / keyint=240 / keyint_min=24 / scenecut=40 / intra_refresh=0 / rc_lookahead=50 / rc=crf / mbtree=1 / crf=17.8 / qcomp=0.60 / qpmin=3 / qpmax=69 / qpstep=4 / ip_ratio=1.40 / aq=1:1.20\nLanguage : English\nColor primaries : BT.601-6 525, BT.1358 525, BT.1700 NTSC, SMPTE 170M\nTransfer characteristics : BT.709-5, BT.1361\nMatrix coefficients : BT.601-6 525, BT.1358 525, BT.1700 NTSC, SMPTE 170M\n\nAudio\nID : 2\nFormat : AC-3\nFormat/Info : Audio Coding 3\nMode extension : CM (complete main)\nCodec ID : A_AC3\nDuration : 1h 55mn\nBit rate mode : Constant\nBit rate : 192 Kbps\nChannel(s) : 1 channel\nChannel positions : Front: C\nSampling rate : 48.0 KHz\nBit depth : 16 bits\nCompression mode : Lossy\nStream size : 159 MiB (13%)\nLanguage : English\n\nText #1\nID : 3\nFormat : VobSub\nCodec ID : S_VOBSUB\nCodec ID/Info : The same subtitle format used on DVDs\nLanguage : English\n\nText #2\nID : 4\nFormat : VobSub\nCodec ID : S_VOBSUB\nCodec ID/Info : The same subtitle format used on DVDs\nLanguage : French\n\nText #3\nID : 5\nFormat : VobSub\nCodec ID : S_VOBSUB\nCodec ID/Info : The same subtitle format used on DVDs\nLanguage : Spanish\n\nMenu\n00:00:00.000 : Chapter 1\n00:01:42.277 : Chapter 2\n00:04:56.338 : Chapter 3\n00:10:16.324 : Chapter 4\n00:15:28.469 : Chapter 5\n00:19:26.674 : Chapter 6\n00:22:15.793 : Chapter 7\n00:25:21.395 : Chapter 8\n00:30:02.309 : Chapter 9\n00:32:50.927 : Chapter 10\n00:37:02.562 : Chapter 11\n00:43:42.962 : Chapter 12\n00:47:24.350 : Chapter 13\n00:52:06.132 : Chapter 14\n00:55:49.826 : Chapter 15\n00:59:54.704 : Chapter 16\n01:03:18.774 : Chapter 17\n01:08:42.231 : Chapter 18\n01:12:38.417 : Chapter 19\n01:18:01.239 : Chapter 20\n01:19:41.890 : Chapter 21\n01:24:06.988 : Chapter 22\n01:27:05.867 : Chapter 23\n01:31:34.468 : Chapter 24\n01:35:37.628 : Chapter 25\n01:39:53.383 : Chapter 26\n01:43:47.367 : Chapter 27\n01:45:44.951 : Chapter 28\n01:50:49.456 : Chapter 29\n01:52:41.734 : Chapter 30\n\n","torrent":{"xt":"urn:btih:fb99391b67741d856eed4b4517271cd558c12448","amp;dn":"Paul+Henreid+-+Dead+Ringer+%281964%29","amp;tr":["udp%3A%2F%2Ftracker.openbittorrent.com%3A80","udp%3A%2F%2Fopen.demonii.com%3A1337","udp%3A%2F%2Ftracker.coppersurfer.tk%3A6969","udp%3A%2F%2Fexodus.desync.com%3A6969"],"infoHash":"fb99391b67741d856eed4b4517271cd558c12448","infoHashBuffer":{"type":"Buffer","data":[251,153,57,27,103,116,29,133,110,237,75,69,23,39,28,213,88,193,36,72]},"announce":[],"urlList":[]}}